<svg width="72" height="56" viewBox="0 0 72 56" fill="none" xmlns="http://www.w3.org/2000/svg">
<path d="M0 0V5.25C0 19.775 7.76195 32.48 19.3171 39.55V56H72V49C72 39.69 53.28 35 43.9024 35H43.0244C26.3415 35 12.2927 21 12.2927 5.25V0M43.9024 0C40.1765 0 36.6031 1.475 33.9685 4.1005C31.3338 6.72601 29.8537 10.287 29.8537 14C29.8537 17.713 31.3338 21.274 33.9685 23.8995C36.6031 26.525 40.1765 28 43.9024 28C47.6284 28 51.2018 26.525 53.8364 23.8995C56.4711 21.274 57.9512 17.713 57.9512 14C57.9512 10.287 56.4711 6.72601 53.8364 4.1005C51.2018 1.475 47.6284 0 43.9024 0Z" fill="white"/>
</svg>
